<svg xmlns="http://www.w3.org/2000/svg" viewBox="0 0 24 24" fill="none">
  <circle cx="12" cy="12" r="9.5" stroke="white" stroke-width="1.4"/>
  <path d="M12 2.5C9.5 5.5 8 8.5 8 12C8 15.5 9.5 18.5 12 21.5" stroke="#7dd3fc" stroke-width="1.3" stroke-linecap="round"/>
  <path d="M12 2.5C14.5 5.5 16 8.5 16 12C16 15.5 14.5 18.5 12 21.5" stroke="#7dd3fc" stroke-width="1.3" stroke-linecap="round"/>
  <path d="M2.5 12C5.5 9.5 8.5 8 12 8C15.5 8 18.5 9.5 21.5 12" stroke="#7dd3fc" stroke-width="1.3" stroke-linecap="round"/>
  <circle cx="12" cy="8" r="1" fill="white"/>
  <circle cx="8" cy="12" r="1" fill="white"/>
  <circle cx="16" cy="12" r="1" fill="white"/>
  <circle cx="12" cy="16" r="0.9" fill="#7dd3fc"/>
  <line x1="12" y1="7" x2="12" y2="9" stroke="white" stroke-width="0.7" opacity="0.6"/>
  <line x1="7" y1="12" x2="9" y2="12" stroke="white" stroke-width="0.7" opacity="0.6"/>
  <line x1="15" y1="12" x2="17" y2="12" stroke="white" stroke-width="0.7" opacity="0.6"/>
</svg>
